<?xml version="1.0" standalone="no"?>
<!DOCTYPE svg PUBLIC "-//W3C//DTD SVG 20010904//EN"
 "http://www.w3.org/TR/2001/REC-SVG-20010904/DTD/svg10.dtd">
<svg version="1.0" xmlns="http://www.w3.org/2000/svg"
 width="1973.000000pt" height="1973.000000pt" viewBox="0 0 1973.000000 1973.000000"
 preserveAspectRatio="xMidYMid meet">
<metadata>
Created by potrace 1.11, written by Peter Selinger 2001-2013
</metadata>
<g transform="translate(0.000000,1973.000000) scale(0.100000,-0.100000)"
fill="#000000" stroke="none">
<path d="M5695 18770 c0 -619 3 -952 10 -959 13 -12 684 -348 6730 -3361 864
-430 1578 -786 1587 -791 18 -9 16 -6 -312 961 -173 511 -335 988 -442 1305
l-74 220 -90 45 c-49 25 -141 70 -204 99 -63 30 -189 90 -279 133 -90 43 -164
78 -166 78 -2 0 -269 127 -390 185 -27 13 -102 49 -165 78 -112 53 -213 101
-395 187 -206 97 -276 131 -390 185 -66 32 -156 74 -200 95 -119 55 -221 104
-404 191 -90 44 -165 79 -166 79 -2 0 -87 41 -190 90 -103 50 -188 90 -190 90
-1 0 -72 33 -156 74 -85 40 -233 111 -329 156 -96 46 -227 107 -290 137 -63
30 -140 66 -170 80 -30 14 -133 63 -229 109 -95 46 -175 84 -176 84 -2 0 -75
34 -162 76 -174 83 -254 121 -388 184 -49 24 -142 67 -205 97 -63 31 -151 72
-195 93 -44 21 -129 61 -190 90 -60 29 -146 69 -190 90 -44 21 -129 61 -190
90 -60 29 -146 69 -190 90 -75 35 -684 335 -1039 511 -88 43 -162 79 -165 79
-4 0 -6 -427 -6 -950z"/>
<path d="M5696 15080 c0 -572 3 -1042 5 -1044 18 -16 6240 -3118 6245 -3113
10 9 7 2028 -2 2037 -5 4 -265 137 -579 295 -313 158 -725 366 -915 463 -732
370 -1184 599 -1685 852 -286 144 -673 340 -860 435 -187 95 -536 271 -775
392 -239 121 -658 334 -932 472 -273 138 -498 251 -500 251 -2 0 -3 -468 -2
-1040z"/>
<path d="M5696 11480 c1 -572 3 -1042 5 -1044 2 -2 267 -134 589 -294 953
-472 1474 -733 1483 -741 4 -5 -461 -243 -1035 -529 l-1043 -522 0 -1041 0
-1042 101 -51 c56 -28 367 -183 690 -345 324 -161 596 -297 604 -302 8 -5
1110 -554 2448 -1221 1337 -667 2432 -1215 2432 -1218 0 -3 -246 -126 -546
-275 -301 -148 -774 -383 -1053 -521 l-506 -251 -170 87 c-237 121 -646 330
-1000 510 -165 84 -390 199 -500 255 -110 56 -330 169 -490 250 -159 81 -389
198 -510 260 -121 62 -373 190 -560 285 -480 244 -628 320 -642 332 -7 6 -13
8 -13 6 0 -3 -60 26 -132 63 -73 38 -138 69 -143 69 -7 0 -10 -352 -10 -1041
l0 -1040 75 -38 c41 -21 275 -139 520 -263 245 -124 630 -319 855 -433 226
-114 550 -278 720 -365 171 -87 540 -273 820 -415 281 -142 661 -335 845 -428
l335 -170 260 130 c265 133 1483 746 2855 1436 421 212 831 418 911 458 l146
72 0 1078 0 1078 -61 30 c-34 16 -218 107 -411 202 -192 94 -458 224 -590 289
-132 65 -382 187 -555 272 -391 193 -854 420 -1150 566 -124 60 -387 190 -585
287 -198 98 -472 233 -610 300 -255 125 -677 332 -1115 547 -740 364 -943 464
-1023 502 l-87 42 87 49 c49 27 102 56 120 66 18 10 63 35 100 55 37 20 82 45
98 54 17 10 55 31 85 47 30 17 168 92 305 168 555 306 853 470 905 498 30 17
97 54 149 84 114 65 145 74 160 44 7 -12 16 -21 22 -21 5 0 103 -46 217 -101
114 -56 270 -132 347 -169 309 -149 505 -245 1064 -521 321 -159 589 -289 596
-289 8 0 116 -50 242 -111 125 -61 287 -140 358 -174 72 -35 211 -102 310
-150 99 -48 248 -120 330 -160 370 -179 495 -239 570 -277 44 -22 90 -44 103
-49 l23 -9 -2 1015 c-2 558 -5 1018 -8 1023 -10 14 -4135 2075 -4159 2078 -12
1 -955 468 -2095 1038 -1140 570 -2075 1036 -2077 1036 -3 0 -5 -468 -4 -1040z"/>
</g>
</svg>
